<svg xmlns="http://www.w3.org/2000/svg" viewBox="0 0 113.34 115"><title>CE Logo RGB</title><path d="M0,87.73a6.72,6.72,0,0,1,7-6.84,6.05,6.05,0,0,1,5.53,3.23l-2.42,1.19A3.58,3.58,0,0,0,7,83.39a4.35,4.35,0,0,0,0,8.68,3.54,3.54,0,0,0,3.11-1.92l2.42,1.17A6.09,6.09,0,0,1,7,94.56a6.72,6.72,0,0,1-7-6.84m26.44,6.6L21.35,81.11H17.82L12.7,94.33h3.21l0.83-2.24h5.67l0.81,2.24h3.21Zm-4.8-4.72H17.52l2.06-5.69ZM42,94.33V81.11H38l-3.21,8-3.21-8H27.67V94.33h2.82V85.07l3.73,9.26h1.23l3.73-9.26v9.26H42Zm9.32,0c2.52,0,3.84-1.59,3.84-3.57a3.2,3.2,0,0,0-2.54-3.25,2.94,2.94,0,0,0,2.28-3c0-1.76-1.29-3.37-3.81-3.37h-7V94.33h7.18ZM52,85a1.41,1.41,0,0,1-1.55,1.43H47V83.52h3.53A1.42,1.42,0,0,1,52,85m0.26,5.39a1.49,1.49,0,0,1-1.7,1.53H47V88.82h3.63a1.55,1.55,0,0,1,1.7,1.55m15.7,4-3-5a3.79,3.79,0,0,0,2.89-3.92,4.12,4.12,0,0,0-4.44-4.26H57.29V94.33H60.1v-4.7h2.06l2.6,4.7H68Zm-3-9a1.8,1.8,0,0,1-2,1.78h-3V83.58h3a1.8,1.8,0,0,1,2,1.78m5,9h2.81V81.11H70V94.33Zm10.64,0c4.14,0,7-2.62,7-6.6s-2.87-6.62-7-6.62H75.46V94.33h5.21Zm4.14-6.6a4,4,0,0,1-4.14,4.12h-2.4V83.58h2.4a3.87,3.87,0,0,1,4.14,4.14m4.24,0a6.73,6.73,0,0,0,7,6.86,7.34,7.34,0,0,0,5.63-2.5V87h-6.3v2.46h3.49v1.59a4.45,4.45,0,0,1-2.81,1,4.35,4.35,0,0,1,0-8.68,3.74,3.74,0,0,1,3.13,1.72l2.34-1.27a6.18,6.18,0,0,0-5.47-3,6.7,6.7,0,0,0-7,6.84m24.28,6.6V91.85H106.8v-3h6.4V86.38h-6.4V83.59h6.54V81.11H104V94.33h9.36Zm-104,20.43v-2.48H2.82v-3H9.22v-2.48H2.82V104H9.36v-2.48H0v13.23H9.36Zm8,0c4.15,0,7-2.62,7-6.61s-2.88-6.63-7-6.63H12.1v13.23h5.22Zm4.15-6.61a4,4,0,0,1-4.15,4.13h-2.4V104h2.4a3.87,3.87,0,0,1,4.15,4.15m5,1.33c0,3.25,1.94,5.51,6,5.51s6-2.24,6-5.53v-7.94H35.56v7.86a2.85,2.85,0,0,1-3.09,3.11,2.87,2.87,0,0,1-3.11-3.11v-7.86H26.49v8m14.06-1.33a6.72,6.72,0,0,0,7,6.84,6.09,6.09,0,0,0,5.53-3.25l-2.42-1.17a3.55,3.55,0,0,1-3.11,1.92,4.35,4.35,0,0,1,0-8.69,3.58,3.58,0,0,1,3.11,1.92l2.42-1.19a6.06,6.06,0,0,0-5.53-3.23,6.72,6.72,0,0,0-7,6.84m27.39,6.61-5.1-13.23H59.31l-5.12,13.23h3.21l0.83-2.24h5.67l0.81,2.24h3.21ZM63.14,110H59l2.06-5.69Zm11,4.72V104H78v-2.48H67.48V104h3.87v10.75h2.84Zm6.16,0h2.82V101.53H80.34v13.23Zm5.43-6.61a6.91,6.91,0,1,0,6.9-6.84,6.64,6.64,0,0,0-6.9,6.84m10.93,0a4,4,0,0,1-4,4.34c-2.44,0-4-1.88-4-4.34s1.57-4.34,4-4.34a4,4,0,0,1,4,4.34m16.64,6.61V101.53h-2.82v8.31l-6.13-8.31h-2.9v13.23h2.82v-8.63l6.31,8.63h2.72ZM24.6,0L17,19.63,9.36,0H0V31.4H6.68V8.76L15.52,31.4h2.91L27.28,8.76V31.4H34V0H24.6Zm88.74,36.48v31.4h-6.73V45.24L97.77,67.89H94.86L86,45.24V67.89H79.34V36.48H88.7l7.62,19.63,7.62-19.63h9.41Z"/></svg>